<svg id="g_translate-24px" xmlns="http://www.w3.org/2000/svg" width="31.526" height="31.526" viewBox="0 0 31.526 31.526">
  <path id="Path_2446" data-name="Path 2446" d="M0,0H31.526V31.526H0Z" fill="none"/>
  <path id="Path_2447" data-name="Path 2447" d="M25.645,5.941H13.665L12.509,2H4.627A2.635,2.635,0,0,0,2,4.627V21.7a2.635,2.635,0,0,0,2.627,2.627h9.2l1.314,3.941H25.645a2.635,2.635,0,0,0,2.627-2.627V8.568A2.635,2.635,0,0,0,25.645,5.941ZM8.791,18.538a5.373,5.373,0,0,1,0-10.745,5.188,5.188,0,0,1,3.6,1.406l.092.079-1.616,1.55-.079-.066a2.853,2.853,0,0,0-2-.775,3.179,3.179,0,0,0,0,6.358,2.692,2.692,0,0,0,2.785-1.918h-2.9V12.391h5.189l.013.092a4.124,4.124,0,0,1,.066.8A4.98,4.98,0,0,1,8.791,18.538Zm7.921-2.246a13.112,13.112,0,0,0,1.563,2.233l-.709.7-.854-2.929Zm1.011-1h-1.3l-.407-1.366h5.241a10.09,10.09,0,0,1-2.049,3.6A12.061,12.061,0,0,1,17.724,15.294Zm9.235,10.351a1.317,1.317,0,0,1-1.314,1.314h-9.2l2.627-2.627-1.064-3.639,1.209-1.209,3.52,3.534.959-.959-3.56-3.52a11.469,11.469,0,0,0,2.522-4.611h1.668V12.561H19.55V11.2H18.184v1.366H15.609l-1.55-5.307H25.645a1.317,1.317,0,0,1,1.314,1.314Z" transform="translate(0.627 0.627)"/>
</svg>
