<svg xmlns="http://www.w3.org/2000/svg" width="84.529" height="59.185" viewBox="0 0 84.529 59.185"><defs><style>.a{fill:#fff;}</style></defs><g transform="translate(0 0.002)"><path class="a" d="M42.264,59.185c-.066,0-6.683,0-14.03-.227-4.315-.131-8.034-.312-11.056-.537a49.084,49.084,0,0,1-7.987-1.047,10.6,10.6,0,0,1-7.451-7.45A42.155,42.155,0,0,1,.734,43.986C.518,42.028.344,39.78.217,37.3,0,33.092,0,29.627,0,29.592s0-3.482.217-7.685c.126-2.471.3-4.718.517-6.679A42.99,42.99,0,0,1,1.74,9.261,10.728,10.728,0,0,1,4.5,4.509,10.592,10.592,0,0,1,9.19,1.742,50.174,50.174,0,0,1,17.148.735C20.166.518,23.887.344,28.207.218,35.561,0,42.2,0,42.263,0s6.7,0,14.056.226c4.32.131,8.041.312,11.059.537a48.371,48.371,0,0,1,7.958,1.047,10.59,10.59,0,0,1,7.45,7.45,40.611,40.611,0,0,1,1.036,5.978c.219,1.965.392,4.22.514,6.7.208,4.256.191,7.688.191,7.72s0,3.482-.217,7.685c-.127,2.473-.3,4.72-.517,6.679a42.879,42.879,0,0,1-1.007,5.967,10.591,10.591,0,0,1-7.451,7.45,50.208,50.208,0,0,1-7.958,1.007c-3.016.217-6.736.39-11.059.517C48.967,59.182,42.33,59.185,42.264,59.185ZM33.84,16.92h0V42.265l22-12.673-22-12.672Z" transform="translate(0 -0.002)"/></g></svg>