<svg id="user_4_" data-name="user (4)" xmlns="http://www.w3.org/2000/svg" width="71.151" height="81.315" viewBox="0 0 71.151 81.315">
  <path id="Path_45" data-name="Path 45" d="M158.111,40.658A20.329,20.329,0,1,1,178.44,20.329,20.352,20.352,0,0,1,158.111,40.658Zm0-35.575a15.247,15.247,0,1,0,15.247,15.247A15.263,15.263,0,0,0,158.111,5.082Z" transform="translate(-122.535)" fill="#45a6c4"/>
  <path id="Path_46" data-name="Path 46" d="M103.055,346.582H36.986a2.54,2.54,0,0,1-2.541-2.541V326.548a7.62,7.62,0,0,1,3.5-6.442c19.083-11.9,45.082-11.9,64.145,0a7.624,7.624,0,0,1,3.5,6.444V344.04A2.54,2.54,0,0,1,103.055,346.582ZM39.527,341.5h60.986V326.548a2.506,2.506,0,0,0-1.114-2.134c-17.448-10.891-41.3-10.9-58.76,0a2.5,2.5,0,0,0-1.112,2.132Z" transform="translate(-34.445 -265.267)" fill="#45a6c4"/>
</svg>
