<svg id="money-bag" xmlns="http://www.w3.org/2000/svg" width="83.509" height="83.509" viewBox="0 0 83.509 83.509">
  <path id="Path_48" data-name="Path 48" d="M9.972,79.514c5.091,2.726,12.081,4,22,4,8.067,0,14.139-.836,18.856-2.613a7.326,7.326,0,0,0,5.609,2.613H76.17a7.335,7.335,0,0,0,5.465-12.233,7.322,7.322,0,0,0,0-9.786,7.322,7.322,0,0,0,0-9.786A7.335,7.335,0,0,0,76.17,39.471H56.434c-.238,0-.474.012-.707.035a33.5,33.5,0,0,0-8.5-7.38,7.332,7.332,0,0,0-2.329-11.52L48.974,8.1a2.447,2.447,0,0,0-2.326-3.205h-7.76a7.34,7.34,0,0,0-13.84,0H17.289A2.447,2.447,0,0,0,14.963,8.1l4.079,12.507a7.332,7.332,0,0,0-2.327,11.523A34.9,34.9,0,0,0,0,61.49C0,69.907,3.355,75.971,9.972,79.514ZM78.616,56.6a2.45,2.45,0,0,1-2.447,2.447H56.434a2.447,2.447,0,1,1,0-4.893H76.17A2.45,2.45,0,0,1,78.616,56.6Zm0,9.786A2.45,2.45,0,0,1,76.17,68.83H56.434a2.447,2.447,0,1,1,0-4.893H76.17A2.45,2.45,0,0,1,78.616,66.383ZM76.17,78.616H56.434a2.447,2.447,0,1,1,0-4.893H76.17a2.447,2.447,0,0,1,0,4.893Zm2.447-31.805a2.45,2.45,0,0,1-2.447,2.447H56.434a2.447,2.447,0,1,1,0-4.893H76.17A2.45,2.45,0,0,1,78.616,46.811ZM41.685,29.685h-19.5a2.446,2.446,0,0,1-.008-4.892H41.762a2.446,2.446,0,0,1-.008,4.892h-.07ZM27.075,9.786A2.446,2.446,0,0,0,29.522,7.34a2.447,2.447,0,1,1,4.893,0v4.893a2.447,2.447,0,0,0,4.893,0V9.786h3.969L39.979,19.9H23.958L20.66,9.786ZM22.659,34.578H41.268a27.649,27.649,0,0,1,9.9,7.13,7.322,7.322,0,0,0-.2,10,7.322,7.322,0,0,0,0,9.786,7.322,7.322,0,0,0,0,9.786,7.311,7.311,0,0,0-1.875,4.893c0,.05,0,.1,0,.15-4.139,1.563-9.651,2.3-17.13,2.3-9.078,0-15.334-1.086-19.687-3.416-5.041-2.7-7.389-7.055-7.389-13.71A29.684,29.684,0,0,1,22.659,34.578Zm0,0" fill="#45a6c4"/>
</svg>
