<svg id="delivery-truck" xmlns="http://www.w3.org/2000/svg" width="53.786" height="39.375" viewBox="0 0 53.786 39.375">
  <path id="Path_54" data-name="Path 54" d="M341.815,164.8H330.709v20.129h18.2v-9.06l-2.122-7.334a5.172,5.172,0,0,0-4.968-3.734" transform="translate(-295.971 -154.695)" fill="#ff7058"/>
  <path id="Path_55" data-name="Path 55" d="M367.785,197.312l-1.891-6.538a2.661,2.661,0,0,0-2.542-1.91h-8.578v8.448Z" transform="translate(-317.507 -176.231)" fill="#84dbff"/>
  <path id="Path_56" data-name="Path 56" d="M367.749,197.28H354.731v-8.448Z" transform="translate(-317.469 -176.202)" fill="#cdd6e0"/>
  <path id="Path_57" data-name="Path 57" d="M367.785,197.312l-1.891-6.538a2.661,2.661,0,0,0-2.542-1.91h-8.578Z" transform="translate(-317.507 -176.231)" fill="#f2f2f2"/>
  <path id="Path_58" data-name="Path 58" d="M3.361,68.6H31.377a3.362,3.362,0,0,1,3.361,3.361V98.83H0V71.958A3.361,3.361,0,0,1,3.361,68.6" transform="translate(0 -68.597)" fill="#9fba3b"/>
  <path id="Path_59" data-name="Path 59" d="M124.7,68.651v8.882l-1.3-1.3L122.04,77.6l-1.361-1.363L119.318,77.6l-1.364-1.363L116.575,77.6l-1.36-1.363L113.9,77.548v-8.9Z" transform="translate(-101.935 -68.645)" fill="#f2f2f2"/>
  <path id="Path_60" data-name="Path 60" d="M53.825,322.8v3.8H.043v-3.8H5.656a7.7,7.7,0,0,1,13.445,0H37.164a7.691,7.691,0,0,1,13.433,0Z" transform="translate(-0.039 -292.57)" fill="#334a5e"/>
  <path id="Path_61" data-name="Path 61" d="M376.963,346.605a5.367,5.367,0,1,1-5.368-5.368,5.368,5.368,0,0,1,5.368,5.368" transform="translate(-327.76 -312.598)" fill="#40596b"/>
  <path id="Path_62" data-name="Path 62" d="M401.1,373.974a2.157,2.157,0,1,1-2.156-2.156,2.156,2.156,0,0,1,2.156,2.156" transform="translate(-355.109 -339.967)" fill="#acb3ba"/>
  <path id="Path_63" data-name="Path 63" d="M77.072,346.605a5.368,5.368,0,1,1-5.368-5.368,5.369,5.369,0,0,1,5.368,5.368" transform="translate(-59.368 -312.598)" fill="#40596b"/>
  <path id="Path_64" data-name="Path 64" d="M101.22,373.974a2.156,2.156,0,1,1-2.156-2.156,2.155,2.155,0,0,1,2.156,2.156" transform="translate(-86.728 -339.967)" fill="#acb3ba"/>
</svg>
