<svg id="email_2_" data-name="email (2)" xmlns="http://www.w3.org/2000/svg" width="53.782" height="36.975" viewBox="0 0 53.782 36.975">
  <path id="Path_65" data-name="Path 65" d="M50.42,116.975H3.361A3.363,3.363,0,0,1,0,113.614V83.361A3.363,3.363,0,0,1,3.361,80H50.42a3.363,3.363,0,0,1,3.361,3.361v30.252A3.363,3.363,0,0,1,50.42,116.975Z" transform="translate(0 -80)" fill="#1e88e5"/>
  <path id="Path_66" data-name="Path 66" d="M50.42,245.849H3.361A3.325,3.325,0,0,1,0,242.487a1.683,1.683,0,0,1,.686-1.355L25.9,224.326a1.681,1.681,0,0,1,1.99,0L53.1,241.133a1.683,1.683,0,0,1,.686,1.355A3.325,3.325,0,0,1,50.42,245.849Z" transform="translate(0 -208.874)" fill="#2196f3"/>
  <path id="Path_67" data-name="Path 67" d="M50.42,80H3.361A3.325,3.325,0,0,0,0,83.361a1.683,1.683,0,0,0,.686,1.355l25.224,18.108a1.681,1.681,0,0,0,1.96,0L53.092,84.716a1.677,1.677,0,0,0,.689-1.355A3.325,3.325,0,0,0,50.42,80Z" transform="translate(0 -80)" fill="#64b5f6"/>
</svg>
