<svg xmlns="http://www.w3.org/2000/svg" width="83.509" height="83.509" viewBox="0 0 83.509 83.509">
  <path id="gift_5_" data-name="gift (5)" d="M80.9,16.963H63.31a8.257,8.257,0,0,0,3.237-6.524C66.546,3.8,62.742,0,56.108,0,49.377,0,44.694,6.528,41.755,12.614,38.816,6.53,34.133,0,27.4,0,20.768,0,16.963,3.8,16.963,10.439A8.257,8.257,0,0,0,20.2,16.963H2.61A2.61,2.61,0,0,0,0,19.572V37.84a2.61,2.61,0,0,0,2.61,2.61V80.9a2.61,2.61,0,0,0,2.61,2.61H78.29A2.61,2.61,0,0,0,80.9,80.9V40.45a2.61,2.61,0,0,0,2.61-2.61V19.572A2.61,2.61,0,0,0,80.9,16.963ZM78.29,35.23H53.5V22.182H78.29ZM35.23,22.182H48.279V35.23H35.23ZM56.108,5.219c3.756,0,5.219,1.463,5.219,5.219,0,3.672-7.573,5.88-15.769,6.4C47.635,11.986,51.535,5.219,56.108,5.219Zm-28.706,0c4.556,0,8.461,6.766,10.545,11.622-8.194-.524-15.764-2.731-15.764-6.4,0-3.756,1.463-5.219,5.219-5.219ZM5.219,22.182H30.011V35.23H5.219ZM7.829,40.45H32.621V78.29H7.829ZM37.84,78.29V40.45h7.829V78.29Zm37.84,0H50.888V40.45H75.68Z" fill="#45a6c4"/>
</svg>
