<svg id="invoice" xmlns="http://www.w3.org/2000/svg" width="35.294" height="48.74" viewBox="0 0 35.294 48.74">
  <path id="Path_68" data-name="Path 68" d="M123.294,35.476V72.74l-2.521-1.681-2.521,1.681-2.521-1.681L113.21,72.74l-2.521-1.681-2.521,1.681-2.521-1.681-2.521,1.681-2.521-1.681L98.084,72.74l-2.521-1.681L93.042,72.74l-2.521-1.681L88,72.74V25.681A1.68,1.68,0,0,1,89.681,24h22.138a3.368,3.368,0,0,1,2.376.984L122.31,33.1A3.368,3.368,0,0,1,123.294,35.476Z" transform="translate(-88 -24)" fill="#ffc431"/>
  <path id="Path_69" data-name="Path 69" d="M337.782,36.661h-8.1A1.68,1.68,0,0,1,328,34.981v-8.1a3.341,3.341,0,0,1,.984.682l8.116,8.116A3.344,3.344,0,0,1,337.782,36.661Z" transform="translate(-302.79 -26.577)" fill="#ffe28f"/>
  <path id="Path_70" data-name="Path 70" d="M136,64h15.126V77.445H136Z" transform="translate(-130.958 -59.798)" fill="#ffa100"/>
  <g id="Group_12" data-name="Group 12" transform="translate(10.084 4.202)">
    <path id="Path_71" data-name="Path 71" d="M184,64v5.042l2.521-1.681,2.521,1.681V64Z" transform="translate(-184 -64)" fill="#f78e00"/>
    <path id="Path_72" data-name="Path 72" d="M216,152h1.681v1.681H216Z" transform="translate(-212.639 -142.756)" fill="#f78e00"/>
    <path id="Path_73" data-name="Path 73" d="M240,152h1.681v1.681H240Z" transform="translate(-234.118 -142.756)" fill="#f78e00"/>
  </g>
  <g id="Group_13" data-name="Group 13" transform="translate(4.202 21.008)">
    <path id="Path_74" data-name="Path 74" d="M128,224h1.681v1.681H128Z" transform="translate(-128 -224)" fill="#ffb401"/>
    <path id="Path_75" data-name="Path 75" d="M160,224h5.042v1.681H160Z" transform="translate(-156.639 -224)" fill="#ffb401"/>
    <path id="Path_76" data-name="Path 76" d="M128,288h1.681v1.681H128Z" transform="translate(-128 -281.277)" fill="#ffb401"/>
    <path id="Path_77" data-name="Path 77" d="M160,288h5.042v1.681H160Z" transform="translate(-156.639 -281.277)" fill="#ffb401"/>
    <path id="Path_78" data-name="Path 78" d="M280,288h4.2v1.681H280Z" transform="translate(-264.034 -281.277)" fill="#ffb401"/>
    <path id="Path_79" data-name="Path 79" d="M248,288h1.681v1.681H248Z" transform="translate(-235.395 -281.277)" fill="#ffb401"/>
    <path id="Path_80" data-name="Path 80" d="M128,256h26.891v1.681H128Z" transform="translate(-128 -252.639)" fill="#ffb401"/>
    <path id="Path_81" data-name="Path 81" d="M128,416h26.891v1.681H128Z" transform="translate(-128 -395.832)" fill="#ffb401"/>
    <path id="Path_82" data-name="Path 82" d="M360,288h2.521v1.681H360Z" transform="translate(-335.63 -281.277)" fill="#ffb401"/>
    <path id="Path_83" data-name="Path 83" d="M248,320h5.882v1.681H248Z" transform="translate(-235.395 -309.916)" fill="#ffb401"/>
    <path id="Path_84" data-name="Path 84" d="M360,320h2.521v1.681H360Z" transform="translate(-335.63 -309.916)" fill="#ffb401"/>
    <path id="Path_85" data-name="Path 85" d="M296,352h4.2v1.681H296Z" transform="translate(-278.353 -338.555)" fill="#ffb401"/>
    <path id="Path_86" data-name="Path 86" d="M248,352h3.361v1.681H248Z" transform="translate(-235.395 -338.555)" fill="#ffb401"/>
    <path id="Path_87" data-name="Path 87" d="M360,352h2.521v1.681H360Z" transform="translate(-335.63 -338.555)" fill="#ffb401"/>
    <path id="Path_88" data-name="Path 88" d="M248,384h4.2v1.681H248Z" transform="translate(-235.395 -367.193)" fill="#ffb401"/>
    <path id="Path_89" data-name="Path 89" d="M360,384h2.521v1.681H360Z" transform="translate(-335.63 -367.193)" fill="#ffb401"/>
  </g>
</svg>
