<svg xmlns="http://www.w3.org/2000/svg" width="157.662" height="57.141" viewBox="0 0 157.662 57.141">
  <g id="Group_4" data-name="Group 4" transform="translate(-1101 -342.12)">
    <g id="Group_1" data-name="Group 1" transform="translate(1212.93 342.12)">
      <path id="Path_1" data-name="Path 1" d="M1370.025,418.546c0,2.948,0,5.9.006,8.845,0,.246-.059.317-.312.315q-2.422-.018-4.844,0c-.229,0-.282-.062-.281-.285q.009-8.369,0-16.737a6.732,6.732,0,0,0-5.377-6.682,5.853,5.853,0,0,0-1.241-.139c-1.524,0-3.048,0-4.572-.006-.208,0-.254.058-.253.258.009,1.533-.009,3.067.009,4.6a6.708,6.708,0,0,0,5.921,6.531c1.112.124,2.23.028,3.344.052.218.005.437.013.653,0,.177-.013.21.059.209.219q-.008,2.5,0,5.008c0,.175-.059.212-.219.209-1.324-.023-2.65.051-3.972-.041a12.164,12.164,0,0,1-11.37-12.136q0-4.913-.006-9.825c0-.248.073-.3.306-.3,3.257.007,6.514,0,9.771.007a12.161,12.161,0,0,1,11.665,8.523,12.445,12.445,0,0,1,.558,3.749Q1370.029,414.626,1370.025,418.546Z" transform="translate(-1347.725 -372.883)" fill="#47a16c"/>
      <path id="Path_2" data-name="Path 2" d="M1399.416,418.611c0-2.858-.05-5.716.015-8.572a11.445,11.445,0,0,1,2.729-7.154,11.989,11.989,0,0,1,7.439-4.294,12.308,12.308,0,0,1,2.085-.161c3.23,0,6.46,0,9.689-.008.246,0,.316.059.315.312-.009,3.311,0,6.623-.007,9.934a12.168,12.168,0,0,1-9.709,11.8,14.532,14.532,0,0,1-2.92.255c-.861-.005-1.723-.008-2.585,0-.208,0-.256-.061-.255-.262q.012-2.463,0-4.926c0-.211.065-.255.262-.253q1.606.013,3.212,0a6.754,6.754,0,0,0,6.445-5.4,7.141,7.141,0,0,0,.123-1.324c0-1.478-.006-2.957.005-4.436,0-.234-.072-.281-.291-.28-1.515.01-3.03-.005-4.545.007a6.743,6.743,0,0,0-6.514,5.671,8.556,8.556,0,0,0-.094,1.272q0,8.274,0,16.548c0,.395.041.346-.35.346-1.587,0-3.175,0-4.763.007-.241,0-.3-.061-.3-.3q.013-4.4.006-8.791Z" transform="translate(-1375.956 -372.88)" fill="#45a6c4"/>
      <path id="Path_3" data-name="Path 3" d="M1395.688,355.38a11.748,11.748,0,0,0-3.354-6.163q-3.434-3.436-6.869-6.871c-.068-.068-.164-.117-.183-.226h-.055c-.05.053-.1.107-.148.157-2.334,2.335-4.687,4.654-7,7.01a11.852,11.852,0,0,0-3.47,10.044,11.329,11.329,0,0,0,3.143,6.784c2.407,2.492,4.887,4.913,7.331,7.371.147.148.216.079.321-.027,2.378-2.382,4.8-4.72,7.126-7.152A11.788,11.788,0,0,0,1395.688,355.38Zm-7.111,7.239c-1.049,1.069-2.118,2.117-3.17,3.182-.133.135-.2.137-.337,0-1.078-1.091-2.174-2.164-3.246-3.259a6.713,6.713,0,0,1-.066-9.26c1.091-1.141,2.224-2.241,3.337-3.361.085-.086.142-.141.258-.023,1.171,1.189,2.383,2.341,3.515,3.566a6.4,6.4,0,0,1,1.662,4.472A6.615,6.615,0,0,1,1388.577,362.619Z" transform="translate(-1362.365 -342.12)" fill="#9fba3b"/>
    </g>
    <g id="Group_2" data-name="Group 2" transform="translate(1101 359.882)">
      <path id="Path_4" data-name="Path 4" d="M1122.089,396.921a7.852,7.852,0,0,0-4.388-2.752c-2.278-.681-4.572-1.316-6.886-1.875a7.79,7.79,0,0,1-2.92-1.271,2.263,2.263,0,0,1-.872-2.575,3.124,3.124,0,0,1,2.4-2.28,8.628,8.628,0,0,1,3.347-.174,4.577,4.577,0,0,1,3.969,2.539,2.477,2.477,0,0,0,2.182,1.445c1.123.077,2.248.013,3.373.034.171,0,.163-.1.157-.213a9.753,9.753,0,0,0-.274-1.879,8.061,8.061,0,0,0-3.64-5.143,10.734,10.734,0,0,0-4.585-1.408,19.88,19.88,0,0,0-3.828-.01,13.6,13.6,0,0,0-3.832.847,7.246,7.246,0,0,0-4.447,4.514,9.216,9.216,0,0,0-.325,4.458,7.244,7.244,0,0,0,1.577,3.588,6.547,6.547,0,0,0,2.6,1.728,41,41,0,0,0,5.166,1.464c1.1.3,2.214.552,3.287.941a8.925,8.925,0,0,1,2.8,1.47,2.238,2.238,0,0,1,.938,1.786,2.945,2.945,0,0,1-1.879,2.832,6.637,6.637,0,0,1-2.348.519,9.624,9.624,0,0,1-3.993-.466,4.184,4.184,0,0,1-2.649-2.374,5.393,5.393,0,0,1-.365-1.332c-.026-.205-.1-.283-.324-.281-1.7.011-3.392.006-5.089.007-.081,0-.162.009-.244.013v.381c.054.365.1.73.164,1.094a8.485,8.485,0,0,0,2.781,5.184,10.244,10.244,0,0,0,5.471,2.324,21.022,21.022,0,0,0,4.259.165,15.165,15.165,0,0,0,4.486-.884,7.571,7.571,0,0,0,4.636-4.453,9.561,9.561,0,0,0,.562-4.6A6.988,6.988,0,0,0,1122.089,396.921Z" transform="translate(-1101 -381.273)" fill="#45a6c4"/>
      <path id="Path_5" data-name="Path 5" d="M1326.031,454.89a6.2,6.2,0,0,0-1.633-.577,6.106,6.106,0,0,1-1.555-.467.443.443,0,0,1-.3-.443.525.525,0,0,1,.35-.473,1.622,1.622,0,0,1,1.883.469.823.823,0,0,0,.677.341c.335,0,.671,0,1.007,0,.143,0,.195-.042.174-.188a2.267,2.267,0,0,0-1.375-1.882,4.051,4.051,0,0,0-1.536-.308,3.526,3.526,0,0,0-2.06.479,2.09,2.09,0,0,0-1,1.934,1.786,1.786,0,0,0,1.222,1.644,9.02,9.02,0,0,0,1.871.548,2.948,2.948,0,0,1,.9.294.528.528,0,0,1,.333.488.576.576,0,0,1-.367.5,1.964,1.964,0,0,1-1.114.15c-.586-.077-1.054-.285-1.16-.942-.022-.138-.115-.115-.2-.115-.481,0-.961.006-1.442,0-.17,0-.217.054-.209.219a2.6,2.6,0,0,0,2.491,2.307c1.766.267,3.832-.523,3.892-2.347A1.625,1.625,0,0,0,1326.031,454.89Z" transform="translate(-1220.922 -419.566)" fill="#45a6c4"/>
      <path id="Path_6" data-name="Path 6" d="M1273.695,454.78a6.907,6.907,0,0,0-1.52-.491,4.925,4.925,0,0,1-1.5-.467.416.416,0,0,1-.261-.409.542.542,0,0,1,.3-.454,1.611,1.611,0,0,1,1.916.413.827.827,0,0,0,.638.365c.362.011.725,0,1.088.007.134,0,.166-.039.149-.176a2.222,2.222,0,0,0-1.259-1.843,3.882,3.882,0,0,0-1.605-.357,3.51,3.51,0,0,0-2.134.5,2.087,2.087,0,0,0-.946,2.062,1.773,1.773,0,0,0,1.222,1.5,9.37,9.37,0,0,0,1.845.543,2.582,2.582,0,0,1,.992.349.494.494,0,0,1,.005.858,1.155,1.155,0,0,1-.315.155,2.182,2.182,0,0,1-1.387-.034.922.922,0,0,1-.674-.776c-.024-.169-.1-.177-.234-.177-.471,0-.943.008-1.415,0-.165,0-.213.044-.214.214-.007,1.393,1.162,2.172,2.5,2.349,1.657.219,3.574-.483,3.853-2.083A1.747,1.747,0,0,0,1273.695,454.78Z" transform="translate(-1192.451 -419.566)" fill="#45a6c4"/>
      <path id="Path_7" data-name="Path 7" d="M1251.786,417.318c-.007-4.255,0-8.51-.015-12.765a12.262,12.262,0,0,0-.532-3.589,6.053,6.053,0,0,0-3.117-3.761,12.067,12.067,0,0,0-8.252-1.135,8.062,8.062,0,0,0-3.6,1.558c-.158.13-.245.1-.387-.01a6.563,6.563,0,0,0-1.723-1.025,12.5,12.5,0,0,0-5.444-.768,12.336,12.336,0,0,0-5.054,1.538,5.966,5.966,0,0,0-2.965,3.624,12.047,12.047,0,0,0-.536,3.588c-.013,4.237,0,8.474-.01,12.711,0,.21.049.274.267.272q2.531-.014,5.063,0c.227,0,.285-.058.284-.284-.009-2.286,0-4.573,0-6.859h0c0-2.241-.008-4.482,0-6.723a3.184,3.184,0,0,1,2.377-3.232,4.188,4.188,0,0,1,3.506.409,2.921,2.921,0,0,1,1.437,1.956,5.86,5.86,0,0,1,.126,1.3q0,6.56-.005,13.12c0,.235.043.322.306.32q2.449-.02,4.9,0c.275,0,.319-.084.318-.334-.009-2.876-.006-5.752-.005-8.628,0-1.606-.015-3.212.007-4.818a3.122,3.122,0,0,1,1.139-2.623,4.137,4.137,0,0,1,4.084-.64,3.116,3.116,0,0,1,2.093,1.983,5.022,5.022,0,0,1,.2,1.583q0,5.322,0,10.643a2.618,2.618,0,0,0,2.841,2.827c.817,0,1.633-.005,2.449,0C1251.721,417.556,1251.786,417.516,1251.786,417.318Z" transform="translate(-1166.096 -389.203)" fill="#45a6c4"/>
      <path id="Path_8" data-name="Path 8" d="M1159.515,396.817c-.844,0-1.687.01-2.53-.008-.26-.005-.33.059-.329.325q.015,5.169.007,10.339t0,10.365c0,.206.044.276.266.275q2.53-.015,5.06,0c.22,0,.289-.05.289-.281q-.01-9.127-.007-18.255A2.7,2.7,0,0,0,1159.515,396.817Z" transform="translate(-1131.407 -389.761)" fill="#45a6c4"/>
      <path id="Path_9" data-name="Path 9" d="M1311.682,453.63a2.26,2.26,0,0,0-1.355-1.864,3.955,3.955,0,0,0-3.726.183,1.978,1.978,0,0,0-.941,1.181,3.615,3.615,0,0,0-.178,1.069c-.007,1.442,0,2.884-.008,4.327,0,.163.043.222.213.219.48-.01.962-.011,1.442,0,.188,0,.251-.055.248-.247-.01-.753,0-1.506,0-2.259h0c0-.744-.008-1.488,0-2.231a1.048,1.048,0,0,1,.767-1.039,1.254,1.254,0,0,1,1.738,1.212c.005,1.215,0,2.431,0,3.646a.838.838,0,0,0,.83.892c.253.019.508,0,.761.025.222.02.27-.068.269-.276-.009-1.333-.006-2.667,0-4A5.224,5.224,0,0,0,1311.682,453.63Z" transform="translate(-1212.711 -419.578)" fill="#45a6c4"/>
      <path id="Path_10" data-name="Path 10" d="M1259.569,453.768a2.229,2.229,0,0,0-1.409-2.028,3.849,3.849,0,0,0-2.413-.282c-1.7.4-2.341,1.132-2.385,2.777-.018.661,0,1.324,0,1.986h-.006c0,.771,0,1.542,0,2.313,0,.16.045.2.2.2.463-.007.926-.016,1.388,0,.238.01.3-.056.3-.3-.012-1.424-.007-2.848,0-4.272a1.155,1.155,0,0,1,.337-.943,1.356,1.356,0,0,1,1.5-.215,1.09,1.09,0,0,1,.677,1.13c-.009,1.116,0,2.232,0,3.347a4.033,4.033,0,0,0,.032.515.822.822,0,0,0,.7.7,7.641,7.641,0,0,0,.978.032c.128,0,.175-.052.173-.18C1259.6,456.958,1259.7,455.36,1259.569,453.768Z" transform="translate(-1184.234 -419.571)" fill="#45a6c4"/>
      <path id="Path_11" data-name="Path 11" d="M1156.906,387.448c.852-.01,1.7,0,2.556,0s1.722-.005,2.583,0c.18,0,.231-.054.228-.23-.011-.516.005-1.033-.007-1.55a2.729,2.729,0,0,0-2.664-2.629c-.9-.009-1.795,0-2.692-.006-.18,0-.252.033-.25.234q.014,1.971,0,3.943C1156.659,387.405,1156.721,387.45,1156.906,387.448Z" transform="translate(-1131.409 -382.234)" fill="#45a6c4"/>
      <path id="Path_12" data-name="Path 12" d="M1285.321,451.7c-.226-.01-.455.014-.679-.007s-.281.076-.279.292c.01,1.1,0,2.193,0,3.29,0,1.124.005,2.248,0,3.372,0,.2.053.27.258.264q.706-.02,1.414,0c.2.006.235-.073.235-.252-.006-1.994,0-3.987,0-5.981A.925.925,0,0,0,1285.321,451.7Z" transform="translate(-1201.178 -419.746)" fill="#45a6c4"/>
      <path id="Path_13" data-name="Path 13" d="M1285.441,447.1c-.3-.016-.6,0-.9-.008-.125,0-.18.038-.177.171.006.38.008.76,0,1.14,0,.156.07.177.2.174.253-.006.506,0,.76,0h.38c.589,0,.589,0,.563-.589A.9.9,0,0,0,1285.441,447.1Z" transform="translate(-1201.18 -417.231)" fill="#45a6c4"/>
      <path id="Path_14" data-name="Path 14" d="M1242.187,451.782a3.751,3.751,0,0,0-2.213-.387,2.8,2.8,0,0,0-2.5,1.813,5.177,5.177,0,0,0-.17,3.255,3.325,3.325,0,0,0,6.29.257c.051-.153.039-.213-.138-.209-.417.009-.834,0-1.251.005a.663.663,0,0,0-.545.262,1.42,1.42,0,0,1-1.467.484c-.625-.093-.986-.549-1.114-1.333-.05-.308-.04-.322.273-.322,1.378,0,2.756,0,4.134,0,.217,0,.283-.063.274-.275a8.793,8.793,0,0,0-.072-1.192A3.086,3.086,0,0,0,1242.187,451.782Zm-.537,2.613c-.4,0-.8,0-1.2,0s-.8-.005-1.2,0c-.155,0-.205-.04-.186-.2a1.39,1.39,0,0,1,1.936-1.169,1.359,1.359,0,0,1,.8,1.253C1241.819,454.426,1241.724,454.394,1241.65,454.395Z" transform="translate(-1175.371 -419.569)" fill="#45a6c4"/>
      <path id="Path_15" data-name="Path 15" d="M1293.621,451.478a4.172,4.172,0,0,0-1.536-.094,2.81,2.81,0,0,0-2.518,1.973,5.5,5.5,0,0,0-.1,3.125,3.34,3.34,0,0,0,5.481,1.412,2.869,2.869,0,0,0,.709-1.139,5.1,5.1,0,0,0,.043-3.178A2.86,2.86,0,0,0,1293.621,451.478Zm.159,5.073a1.267,1.267,0,0,1-1.292.771,1.314,1.314,0,0,1-1.191-1.031,4.628,4.628,0,0,1-.167-1.336,2.731,2.731,0,0,1,.157-1.046,1.331,1.331,0,0,1,1.3-.971,1.257,1.257,0,0,1,1.25.842A3.445,3.445,0,0,1,1293.78,456.551Z" transform="translate(-1203.868 -419.56)" fill="#45a6c4"/>
      <path id="Path_16" data-name="Path 16" d="M1187.5,397.564a13.267,13.267,0,0,0-9.28-1.578,7.358,7.358,0,0,0-5.16,3.433,11.662,11.662,0,0,0-1.49,3.713,17.777,17.777,0,0,0-.209,6.272,10.16,10.16,0,0,0,1.517,4.266c1.88,2.848,4.439,4.425,7.942,4.177a6.158,6.158,0,0,0,3.306-1.188,7.037,7.037,0,0,0,1.631-1.764,10.225,10.225,0,0,1-.4,3.61,4.6,4.6,0,0,1-2.585,2.925,4.33,4.33,0,0,1-5.135-1.623.364.364,0,0,0-.338-.211q-2.708.011-5.416,0c-.171,0-.222.025-.167.211.136.461.278.919.458,1.364a7.819,7.819,0,0,0,4.6,4.655,11.664,11.664,0,0,0,4.733.639,13.609,13.609,0,0,0,5.755-1.625,6.734,6.734,0,0,0,3.436-4.187,12.7,12.7,0,0,0,.508-3.648q.021-5.852,0-11.7a13.209,13.209,0,0,0-.364-3.124A6.933,6.933,0,0,0,1187.5,397.564Zm-2.215,12.654a3.982,3.982,0,0,1-3.085,2.972,5.437,5.437,0,0,1-2.95-.2,3.436,3.436,0,0,1-2.079-2.265,11.321,11.321,0,0,1-.513-4.507,10.308,10.308,0,0,1,.827-3.525,3.559,3.559,0,0,1,3.28-2.207c.153-.012.308,0,.462,0a3.56,3.56,0,0,1,3.37,1.837,8.232,8.232,0,0,1,1.129,3.622A11.05,11.05,0,0,1,1185.286,410.218Z" transform="translate(-1139.341 -389.178)" fill="#45a6c4"/>
      <path id="Path_17" data-name="Path 17" d="M1297.279,416.539a8.018,8.018,0,0,0,4.051,1.353,20,20,0,0,0,5.247-.377,8.051,8.051,0,0,0,3.892-1.942,7.745,7.745,0,0,0,2.382-5.545c.068-1.378.027-2.757.039-3.927,0-1.56,0-2.911,0-4.263a5.21,5.21,0,0,0-1.766-4.136,7.14,7.14,0,0,0-2.887-1.456,14.877,14.877,0,0,0-3.165-.467,13.185,13.185,0,0,0-4.922.477,6.448,6.448,0,0,0-4.689,5.174c-.045.241.041.249.228.248q2.422-.007,4.844,0a.373.373,0,0,0,.377-.229,2.109,2.109,0,0,1,1.182-.988,5.277,5.277,0,0,1,1.324-.286,7.387,7.387,0,0,1,3.207.43,1.386,1.386,0,0,1,.953,1.185,1.442,1.442,0,0,1-.665,1.473,3.507,3.507,0,0,1-.719.378,17.457,17.457,0,0,1-4.013.793,13.272,13.272,0,0,0-4.553,1.434,4.808,4.808,0,0,0-2.543,3.318,9.317,9.317,0,0,0,.061,4.309A4.962,4.962,0,0,0,1297.279,416.539Zm3.068-6.748a1.945,1.945,0,0,1,.877-.964,7.53,7.53,0,0,1,2.226-.754,19.145,19.145,0,0,0,4.153-1.236c.014-.007.034,0,.081,0a13.563,13.563,0,0,1-.265,3.768,4.22,4.22,0,0,1-3.678,2.947,5.86,5.86,0,0,1-1.865-.056,2.16,2.16,0,0,1-1.75-1.819A3.137,3.137,0,0,1,1300.348,409.792Z" transform="translate(-1206.913 -389.178)" fill="#45a6c4"/>
      <path id="Path_18" data-name="Path 18" d="M1225.247,447.179a4.1,4.1,0,0,0-.919-.086c-1.043,0-2.086,0-3.13,0a.948.948,0,0,0-1.045,1.046q0,1.973,0,3.946c0,1.352,0,2.7-.005,4.055,0,.2.052.266.257.259q.693-.022,1.388,0c.21.007.279-.049.277-.269-.013-.935,0-1.869-.01-2.8,0-.211.052-.282.272-.279.843.008,1.689.032,2.53-.019a2.291,2.291,0,0,0,2.146-1.494,4.281,4.281,0,0,0,.221-2.06A2.455,2.455,0,0,0,1225.247,447.179Zm.064,3.37a1,1,0,0,1-.9.792,18.538,18.538,0,0,1-2.2.051c-.151,0-.149-.092-.148-.2,0-.381,0-.761,0-1.142s0-.761,0-1.142c0-.12.008-.216.167-.211.7.018,1.4-.042,2.092.034a1.033,1.033,0,0,1,1.015.954A1.965,1.965,0,0,1,1225.31,450.55Z" transform="translate(-1166.095 -417.233)" fill="#45a6c4"/>
    </g>
  </g>
</svg>
