<svg id="shopping-cart" xmlns="http://www.w3.org/2000/svg" width="41.451" height="36.432" viewBox="0 0 41.451 36.432">
  <path id="Path_23" data-name="Path 23" d="M13.355,24.288H35.379a1.215,1.215,0,0,0,1.168-.881l4.858-17a1.214,1.214,0,0,0-1.168-1.548H10.554L9.686.951A1.215,1.215,0,0,0,8.5,0H1.214a1.214,1.214,0,0,0,0,2.429H7.527L11.911,22.16a3.643,3.643,0,0,0,1.447,6.986H35.379a1.214,1.214,0,0,0,0-2.429H13.358a1.214,1.214,0,0,1,0-2.428Zm25.272-17L34.463,21.859H14.332L11.094,7.286Zm0,0" fill="#45a6c4"/>
  <path id="Path_24" data-name="Path 24" d="M150,363.643A3.643,3.643,0,1,0,153.643,360,3.647,3.647,0,0,0,150,363.643Zm3.643-1.214a1.214,1.214,0,1,1-1.214,1.214A1.216,1.216,0,0,1,153.643,362.429Zm0,0" transform="translate(-137.856 -330.855)" fill="#45a6c4"/>
  <path id="Path_25" data-name="Path 25" d="M362,363.643A3.643,3.643,0,1,0,365.643,360,3.647,3.647,0,0,0,362,363.643Zm3.643-1.214a1.214,1.214,0,1,1-1.214,1.214A1.216,1.216,0,0,1,365.643,362.429Zm0,0" transform="translate(-332.693 -330.855)" fill="#45a6c4"/>
</svg>
