<svg xmlns="http://www.w3.org/2000/svg" width="52.828" height="37.856" viewBox="0 0 52.828 37.856">
  <path id="airplane" d="M6.3,22.879a.924.924,0,0,0-.453,1.21l2.077,4.459A.922.922,0,0,0,9.141,29l15.7-7.331L23.414,36.534a.924.924,0,0,0,.3.776,4.03,4.03,0,0,0,2.438.923,2.968,2.968,0,0,0,.729-.092c1.274-.332,2.262-1.468,2.936-3.407L36,16.445l12.233-5.706c3.6-1.68,5.456-5.087,4.21-7.746A4.674,4.674,0,0,0,48.831.472a8.558,8.558,0,0,0-5.041.776L29.674,7.868,14.5,1.931c-1.911-.72-3.425-.7-4.487.065A3.765,3.765,0,0,0,8.633,4.978a.924.924,0,0,0,.4.73l10.22,7.026L13.4,15.5,3.583,13.01a.924.924,0,0,0-1.025.443l-2.446,4.4a.923.923,0,0,0,.48,1.3l7.266,3ZM10.526,4.517a1.58,1.58,0,0,1,.554-1c.526-.379,1.487-.323,2.77.157L27.366,8.948,21.2,11.828ZM2.217,17.848,3.823,15l9.445,2.345a.925.925,0,0,0,.61-.055l30.7-14.338a6.748,6.748,0,0,1,3.942-.628A2.892,2.892,0,0,1,50.77,3.778c.775,1.662-.748,4.09-3.324,5.29L36.81,14.054l.646-1.912a.939.939,0,1,0-1.782-.591l-7.6,22.61c-.452,1.284-1.016,2.05-1.643,2.216a1.562,1.562,0,0,1-1.126-.212l1.847-19.388a.927.927,0,0,0-1.847-.175l-.286,2.963L9.178,26.951l-1.3-2.77,2.6-1.218a.923.923,0,0,0,0-1.69Zm0,0" transform="translate(0 -0.377)" fill="#45a6c4"/>
</svg>
