<svg id="burger" xmlns="http://www.w3.org/2000/svg" width="37.815" height="37.415" viewBox="0 0 37.815 37.415">
  <path id="Path_26" data-name="Path 26" d="M286.826,45.541a16.038,16.038,0,0,1,6.506,2.468,10.14,10.14,0,0,1,3.765,4.341.739.739,0,1,0,1.361-.574,11.605,11.605,0,0,0-4.3-4.99,17.521,17.521,0,0,0-7.108-2.7.739.739,0,0,0-.226,1.46Zm0,0" transform="translate(-265.062 -40.817)" fill="#45a6c4"/>
  <path id="Path_27" data-name="Path 27" d="M99.688,126.227a.738.738,0,1,0,.254-.885A.755.755,0,0,0,99.688,126.227Zm0,0" transform="translate(-92.277 -115.963)" fill="#45a6c4"/>
  <path id="Path_28" data-name="Path 28" d="M147.86,88.983a.738.738,0,1,0,.25-.881A.754.754,0,0,0,147.86,88.983Zm0,0" transform="translate(-136.89 -81.469)" fill="#45a6c4"/>
  <path id="Path_29" data-name="Path 29" d="M199.626,126.227a.738.738,0,1,0,.254-.885A.756.756,0,0,0,199.626,126.227Zm0,0" transform="translate(-184.834 -115.963)" fill="#45a6c4"/>
  <path id="Path_30" data-name="Path 30" d="M37.815,23.408a3.742,3.742,0,0,0-2.5-3.524V18.036a3.172,3.172,0,0,0,.67-.342,2.916,2.916,0,0,0,1.323-2.448,2.885,2.885,0,0,0-.548-1.7,2.383,2.383,0,0,0,.147-1.367A13.782,13.782,0,0,0,30.794,3.46,21.375,21.375,0,0,0,18.907,0,21.375,21.375,0,0,0,7.021,3.46,13.781,13.781,0,0,0,.905,12.179a2.382,2.382,0,0,0,.308,1.682,2.873,2.873,0,0,0-.35,1.385,2.916,2.916,0,0,0,1.324,2.449,3.215,3.215,0,0,0,.31.183v2.007A3.742,3.742,0,0,0,0,23.408v.15A3.726,3.726,0,0,0,1.191,26.29a2.912,2.912,0,0,0,.428,3.3v2.665a5.17,5.17,0,0,0,5.164,5.164h24.25A5.17,5.17,0,0,0,36.2,32.251v-2.33a2.917,2.917,0,0,0,.655-3.863,3.72,3.72,0,0,0,.963-2.5Zm-1.477,0v.15a2.262,2.262,0,0,1-2.259,2.259H22.626l4.71-4.668h6.743A2.262,2.262,0,0,1,36.338,23.408ZM11.194,21.149l.117.117.758.757L10.483,23.61,8.022,21.149Zm6.973,4.884L13.636,21.5h0l-.353-.353H25.234L20.3,26.031h0l0,0L19.231,27.1ZM2.357,12.45A12.325,12.325,0,0,1,7.848,4.683,19.885,19.885,0,0,1,18.907,1.477,19.885,19.885,0,0,1,29.966,4.683a12.326,12.326,0,0,1,5.491,7.767.928.928,0,0,1-.9,1.085H3.26A.928.928,0,0,1,2.357,12.45Zm.039,2.4a2.4,2.4,0,0,0,.864.161h31.3a2.409,2.409,0,0,0,1.173-.306,1.432,1.432,0,0,1,.105.539,1.46,1.46,0,0,1-.67,1.222,1.74,1.74,0,0,1-1.488.205c-.246-.078-.478-.178-.732-.233a3.993,3.993,0,0,0-.836-.085,4.048,4.048,0,0,0-2.6.9,2.725,2.725,0,0,1-3.487,0,4.189,4.189,0,0,0-5.192,0,2.726,2.726,0,0,1-3.488,0,4.19,4.19,0,0,0-5.192,0,2.726,2.726,0,0,1-3.488,0,4.046,4.046,0,0,0-2.6-.9,3.739,3.739,0,0,0-1.439.271,1.743,1.743,0,0,1-1.618-.158,1.46,1.46,0,0,1-.67-1.222A1.423,1.423,0,0,1,2.4,14.851Zm1.726,3.378a3.587,3.587,0,0,0,1.112-.254,2.544,2.544,0,0,1,1.133-.13,2.672,2.672,0,0,1,1.445.618,4.189,4.189,0,0,0,5.192,0,2.726,2.726,0,0,1,3.488,0,4.189,4.189,0,0,0,5.192,0,2.726,2.726,0,0,1,3.488,0,4.188,4.188,0,0,0,5.191,0,2.611,2.611,0,0,1,1.744-.631,2.391,2.391,0,0,1,.879.161,3.421,3.421,0,0,0,.853.22v1.46H3.975V18.233C4.024,18.233,4.073,18.231,4.122,18.229ZM1.477,23.408a2.262,2.262,0,0,1,2.259-2.259h2.2l4.028,4.028a.739.739,0,0,0,1.044,0l2.108-2.108,2.749,2.749H3.736a2.262,2.262,0,0,1-2.259-2.259Zm.986,3.663a3.747,3.747,0,0,0,1.273.224h13.6l1.37,1.37a.746.746,0,0,0,1.042,0l1.385-1.372H34.078a3.758,3.758,0,0,0,1.226-.207,1.882,1.882,0,0,0,.244-.1c.025-.013.061-.042.091-.04s.052.055.066.088a1.43,1.43,0,0,1,.126.563,1.537,1.537,0,0,1-1.144,1.47,1.749,1.749,0,0,1-1.144-.063,3.731,3.731,0,0,0-1.438-.271,4.046,4.046,0,0,0-2.6.9,2.725,2.725,0,0,1-3.488,0,4.189,4.189,0,0,0-5.192,0,2.725,2.725,0,0,1-3.488,0,4.189,4.189,0,0,0-5.192,0,2.725,2.725,0,0,1-3.488,0,4.048,4.048,0,0,0-2.6-.9,3.731,3.731,0,0,0-1.438.271,1.741,1.741,0,0,1-1.5-.085,1.515,1.515,0,0,1-.773-1.076,1.457,1.457,0,0,1,0-.413C2.359,27.394,2.427,27.057,2.463,27.071Zm32.256,5.181a3.691,3.691,0,0,1-3.687,3.687H6.782A3.691,3.691,0,0,1,3.1,32.251V30.5a3.2,3.2,0,0,0,1.885-.048l.038-.013c.057-.02.114-.04.17-.063a2.286,2.286,0,0,1,.88-.161,2.609,2.609,0,0,1,1.744.631,4.189,4.189,0,0,0,5.192,0,2.726,2.726,0,0,1,3.488,0,4.189,4.189,0,0,0,5.192,0,2.726,2.726,0,0,1,3.487,0,4.189,4.189,0,0,0,5.192,0,2.609,2.609,0,0,1,1.744-.631,2.438,2.438,0,0,1,.653.084c.2.056.393.145.6.2a3.187,3.187,0,0,0,1.363.077v1.674Zm0,0" fill="#45a6c4"/>
  <path id="Path_31" data-name="Path 31" d="M225.239,88.982a.738.738,0,1,0,.255-.885A.754.754,0,0,0,225.239,88.982Zm0,0" transform="translate(-208.554 -81.468)" fill="#45a6c4"/>
  <path id="Path_32" data-name="Path 32" d="M270.357,133.067a.738.738,0,1,0,.254-.885A.755.755,0,0,0,270.357,133.067Zm0,0" transform="translate(-250.34 -122.297)" fill="#45a6c4"/>
  <path id="Path_33" data-name="Path 33" d="M241.414,39.06a.739.739,0,1,0-.28-.876A.754.754,0,0,0,241.414,39.06Zm0,0" transform="translate(-223.283 -34.922)" fill="#45a6c4"/>
</svg>
