<svg xmlns="http://www.w3.org/2000/svg" width="34.367" height="39.708" viewBox="0 0 34.367 39.708">
  <path id="shopping-bag_2_" data-name="shopping-bag (2)" d="M34.36,38.4,31.342,9.663A1.182,1.182,0,0,0,30.167,8.6H24.494V7.311a7.311,7.311,0,0,0-14.623,0V8.6H4.2A1.182,1.182,0,0,0,3.024,9.663L.006,38.4a1.182,1.182,0,0,0,1.175,1.305h32A1.182,1.182,0,0,0,34.36,38.4ZM12.235,7.311a4.948,4.948,0,0,1,9.9,0V8.6h-9.9ZM2.494,37.344l2.77-26.376H9.871v2.6a1.182,1.182,0,1,0,2.364,0v-2.6h9.9v2.6a1.182,1.182,0,0,0,2.364,0v-2.6H29.1l2.77,26.376Zm0,0" transform="translate(0.001)" fill="#45a6c4"/>
</svg>
